<svg xmlns="http://www.w3.org/2000/svg" xmlns:xlink="http://www.w3.org/1999/xlink" xmlns:xodm="http://www.corel.com/coreldraw/odm/2003" xml:space="preserve" version="1.1" style="shape-rendering:geometricPrecision;text-rendering:geometricPrecision;image-rendering:optimizeQuality;" viewBox="0 0 100000 125000" x="0px" y="0px" fill-rule="evenodd" clip-rule="evenodd"><defs><style type="text/css">
   
    .fil0 {fill:black;fill-rule:nonzero}
   
  </style></defs><g><path class="fil0" d="M734.1 78128.23c-262.75,126.86 -578.56,16.6 -705.36,-246.27 -126.8,-262.86 -16.59,-578.82 246.15,-705.68 3548.47,-1722.37 6973.34,-3416.96 10211.95,-5151.1 117.18,-62.74 234.13,-125.57 350.89,-188.47 30.33,-33.23 65.4,-63.11 105.05,-88.57 63.33,-40.67 132.08,-66.07 201.93,-77.21 2905.27,-1573.17 5679.99,-3195.7 8293.54,-4925.61 20.93,-22.08 44.02,-42.67 69.3,-61.42 40.67,-30.16 84.25,-53.59 129.41,-70.52l41.51 -27.63c13238.12,-8829.5 24109.98,-20164.63 28712.46,-24963.24 717.68,-748.26 1289.17,-1344.1 1642.16,-1697.25 8.37,-8.37 16.96,-16.37 25.73,-24.06 408.49,-419.58 545.7,-805.96 659,-1275.78 4.1,-25.24 9.97,-49.81 17.42,-73.58 15.67,-67.3 31.13,-136.34 47.06,-207.49 47.89,-214.09 99.15,-443.16 153.69,-646.82 208.67,-779.14 450.57,-1320.79 727.53,-1732.1 287.61,-427.12 606.79,-705.98 962.2,-955.26 1009.7,-708.2 1281.17,-1176.23 1523.76,-1594.48 166.11,-286.41 321.49,-554.3 619.85,-852.78 587.29,-587.58 1155.43,-848.71 1767.39,-799.74 583.07,46.65 1145.47,380.71 1751.6,987.12l4603.71 4605.83 4603.71 4605.84c606.12,606.4 940.03,1169.07 986.66,1752.4 48.94,612.25 -212.07,1180.65 -799.37,1768.21 -298.35,298.5 -566.11,453.95 -852.39,620.14 -418.05,242.7 -885.86,514.3 -1593.74,1524.46 -249.17,355.58 -527.89,674.91 -954.83,962.64 -411.12,277.09 -952.52,519.11 -1731.29,727.87 -203.57,54.56 -432.53,105.85 -646.52,153.77 -603.29,135.09 -1056.12,236.54 -1556.14,723.81 -7.68,8.77 -15.68,17.37 -24.04,25.74 -352.99,353.15 -948.55,924.89 -1696.44,1642.89 -2086.91,2003.47 -5409.79,5193.5 -9226.02,9249.78 -317.79,337.78 -645.35,688.45 -982.9,1052.58 -316.77,341.69 -649.68,703.61 -999.5,1086.89 -274.88,301.16 -560.98,616.82 -858.77,947.65 -361.76,401.92 -653.65,727.86 -868.47,970.01 -990.68,1116.7 -1989.5,2270.14 -2983.76,3453.35 -999.85,1189.84 -2006.52,2422.76 -3009.85,3694.74 -1020.6,1293.88 -2045.83,2640.38 -3066.41,4037.61 -983.79,1346.86 -1959.54,2739.59 -2917.88,4175.9 -10.1,89.36 -43.14,177.32 -100.52,254.75 -45.67,61.62 -102.21,110.4 -164.97,145.72 -1783.72,2708.64 -3477.13,5653.71 -5120.99,8736.92 -1714.61,3215.92 -3391.68,6612.96 -5064.64,10055.18 -126.8,262.86 -442.61,373.12 -705.36,246.27 -262.74,-126.86 -372.95,-442.82 -246.15,-705.69 1660.82,-3417.24 3330.72,-6799.22 5061.61,-10047.93 -740.08,-491.03 -1505.85,-1033.4 -2288.76,-1622.3 -832.54,-626.25 -1687.17,-1308.2 -2553.49,-2040.02 -314.65,65.79 -629.68,112.48 -943.13,139.65 -1955.95,169.51 -3852.53,-412.73 -5226.07,-1786.91 -1373.55,-1374.18 -1955.53,-3271.64 -1786.09,-5228.49 26.96,-311.31 73.15,-624.19 138.14,-936.7 -759.1,-898.11 -1462.58,-1781.8 -2105.72,-2642.21 -553.36,-740.31 -1068.43,-1471.81 -1541.96,-2188.53l-82.7 44.33c-3282.03,1757.39 -6709,3453.44 -10249.18,5171.79zm4571.34 -31423.5c121.1,-266.3 435.05,-383.97 701.22,-262.81 266.18,121.15 383.79,435.24 262.7,701.54 -689.36,1515.31 -798.91,2882.14 -521.47,4025.68 233.35,961.79 739.84,1770.81 1403.04,2378.84 664.35,609.09 1485.58,1017.59 2347.01,1177.09 952.42,176.33 1952.39,47.2 2839.11,-453.83 656.76,-371.09 1153.09,-986.58 1403.8,-1685.75 239.12,-666.89 251.13,-1406.8 -40.04,-2075.75 -450.54,-1035.04 -1244.57,-1490.6 -2024.75,-1523.8 -320.02,-13.61 -638.12,40.96 -930.07,153.47 -290.37,111.9 -554.35,280.52 -767.86,495.61 -475.53,479.03 -696.5,1207.02 -381.46,2067.62 100.53,274.3 -40.24,578.2 -314.41,678.78 -274.17,100.58 -577.93,-40.26 -678.46,-314.55 -476.63,-1301.99 -121.59,-2424.23 625.52,-3176.86 318.49,-320.83 708.98,-571.07 1136.06,-735.66 425.53,-163.98 887.96,-243.59 1352.05,-223.83 1153.26,49.06 2314.8,694.47 2951.44,2157.05 403.97,928.09 390.9,1944.58 64.85,2853.87 -333.31,929.53 -997.72,1750.39 -1879.54,2248.65 -1113.94,629.42 -2362.54,793.06 -3546.53,573.84 -1053.37,-195.02 -2056.98,-694.02 -2868.28,-1437.83 -812.46,-744.87 -1432.53,-1734.21 -1717.46,-2908.63 -330.49,-1362.21 -211.09,-2966.05 583.53,-4712.74zm18223.73 -14361.6c-202.2,210.3 -536.53,216.78 -746.73,14.49 -210.2,-202.3 -216.68,-536.79 -14.48,-747.08 1352.8,-1408.32 1583.92,-3660.63 1069.23,-5687.69 -86.09,-339.07 -192.67,-670.81 -317.99,-990.4 -361.13,891.33 -913.04,1669.41 -1650.62,2241.01 -1622.47,1257.36 -3278.83,1232.6 -4525.9,552.9 -531.24,-289.55 -984.28,-696.9 -1325.72,-1173.86 -343,-479.16 -577.29,-1034.52 -669.38,-1617.7 -204.13,-1292.68 290.31,-2692.33 1846.09,-3665.14 1533.02,-958.58 2988.36,-963.76 4236.97,-365.17 565.92,271.3 1083.08,667.47 1539.77,1154.52 -11.35,-507.32 -77.93,-1021.65 -200.73,-1527.51 -219.84,-905.66 -620.04,-1781.69 -1205.72,-2538.13 -891.6,-1151.55 -2219.43,-2027.26 -4003.25,-2306.83 -287.88,-44.57 -485.14,-314.2 -440.6,-602.22 44.54,-288.01 314.05,-485.36 601.93,-440.8 2078.85,325.82 3631.15,1352.64 4677.59,2704.18 678.91,876.87 1142.22,1889.88 1396.03,2935.47 250.24,1030.88 296.55,2095.87 144.82,3094.74 403.47,696.23 717.23,1475.02 922.69,2284.19 595.44,2345.1 297.06,4983.04 -1334,6681.03zm-698.58 -8756.31c-34.83,-53.23 -70.27,-105.74 -106.33,-157.45 -486.41,-697.39 -1080.56,-1252.63 -1748.7,-1572.93 -931.57,-446.61 -2035.65,-431.32 -3223.4,311.36 -1137.88,711.5 -1504.64,1702.58 -1362.05,2605.59 64.96,411.45 235.62,810.74 487.36,1162.41 253.3,353.84 584.87,653.57 969.93,863.45 909.31,495.6 2139.07,496.59 3375.81,-461.84 828.28,-641.89 1368.31,-1629.53 1607.38,-2750.59zm47761.5 46134.8c-291.31,-5.71 -522.84,-246.62 -517.12,-538.06 5.71,-291.44 246.51,-523.08 537.81,-517.36 2494.45,50.8 4239.48,871.23 5374.66,2093.15 890.81,958.84 1397,2155.37 1589.58,3417.26 75.69,496 102.51,1002.9 84.97,1509.76 462.49,378.24 878.15,816.25 1236.41,1301.22 677.61,917.26 1151.16,2003.05 1349.38,3170.13 393.98,2319.67 -294.67,4955.67 -2626.14,7215.64 -209.06,203.43 -543.39,198.81 -746.74,-10.34 -203.34,-209.16 -198.72,-543.65 10.34,-747.08 2050.42,-1987.53 2660.46,-4279.87 2320.01,-6284.38 -169.88,-1000.23 -575.2,-1930.07 -1154.94,-2714.86 -163.31,-221.06 -340.37,-430.57 -529.81,-626.87 -57.41,315.26 -131.05,626.73 -219.81,931.63 -575.38,1976.37 -1797.39,3689.19 -3366.65,4400.6 -1833.17,831.07 -3496.33,523.73 -4658.99,-339.98 -500.33,-371.67 -905.91,-846 -1191.14,-1377.06 -286.89,-534.16 -453.55,-1128.8 -474.21,-1737.77 -44.91,-1323.03 594.38,-2693.38 2180.54,-3628.99 2321.77,-1369.52 4646.53,-1325.97 6526.01,-414.02 94.76,45.97 188.35,94.18 280.73,144.5 -12.57,-213.12 -34.61,-425.1 -66.62,-634.84 -162.21,-1062.95 -581.81,-2063.52 -1316.54,-2854.37 -952.11,-1024.85 -2448.34,-1713.64 -4621.73,-1757.91zm5695.03 7905.98c135.9,-466.81 231.52,-951.05 281.71,-1439.88 -227.17,-153.97 -464.89,-291.75 -711.78,-411.54 -1580.38,-766.82 -3547.76,-796.01 -5529,372.64 -1208.04,712.57 -1696.08,1722.95 -1663.41,2685.31 14.95,440.42 137.99,875.17 350.1,1270.09 213.76,398 516.54,752.58 889.14,1029.37 879.17,653.13 2158.46,875.72 3595.78,224.11 1280.31,-580.42 2293.74,-2034.22 2787.46,-3730.1zm-1280.85 -58541.74c49.5,-238.11 282.57,-390.98 520.57,-341.46 238,49.52 390.79,282.7 341.3,520.81 -186.59,893.94 -514.35,1739.02 -937.86,2540.3 -417.68,790.29 -930.91,1540.61 -1494.41,2254.67 -150.4,190.48 -426.71,222.91 -617.1,72.44 -190.39,-150.48 -222.81,-426.91 -72.4,-617.39 529.01,-670.36 1011.33,-1375.72 1404.78,-2120.16 387.66,-733.45 686.7,-1502.28 855.12,-2309.21zm5726.15 5045.87c238,-49.51 471.07,103.35 520.56,341.46 49.5,238.11 -103.3,471.29 -341.3,520.81 -806.55,168.5 -1575.03,467.68 -2308.14,855.51 -744.1,393.64 -1449.13,876.18 -2119.18,1405.44 -190.39,150.47 -466.7,118.04 -617.1,-72.44 -150.41,-190.48 -118,-466.91 72.4,-617.39 713.73,-563.75 1463.7,-1077.22 2253.63,-1495.09 800.91,-423.71 1645.6,-751.62 2539.13,-938.3zm-20398.18 -17355.69c-560.6,-150.27 -1128.15,-59.71 -1592.74,208.2l0.43 0.74c-465.15,268.67 -827.88,714.97 -977.92,1275.17 -150.2,560.86 -59.68,1128.66 208.11,1593.48l0.74 -0.43c268.55,465.35 714.63,828.27 1274.58,978.36 560.32,150.2 1127.81,59.37 1592.31,-208.93 465.14,-268.68 827.88,-714.97 977.91,-1275.18 150.14,-560.58 59.34,-1128.34 -208.83,-1593.04 -268.55,-465.36 -714.64,-828.26 -1274.59,-978.37zm-2031.87 -553.31c660.66,-381.6 1466.02,-511.29 2259.41,-298.62 794.57,213.01 1427.68,728.15 1808.94,1388.81 381.63,661.31 511.27,1467.64 298.48,2262.18 -212.91,794.93 -727.81,1428.34 -1388.16,1809.77 -661.01,381.81 -1466.96,511.51 -2261.14,298.62 -794.57,-213 -1427.69,-728.15 -1808.94,-1388.79l0 -1.74c-381.43,-660.97 -511.06,-1466.69 -298.49,-2260.45 212.91,-794.94 727.81,-1428.35 1388.17,-1809.78l1.73 0zm-1223.52 12708.19c-315.76,-84.65 -635.09,-33.73 -896.06,117 -259.9,150.13 -462.94,400.66 -547.5,716l-0.11 0.41c-84.61,315.91 -33.72,635.39 116.94,896.47 150.06,260.03 400.46,463.15 715.65,547.76l0.41 0.11c315.76,84.63 635.1,33.73 896.07,-117.01 260.01,-150.18 463.12,-400.87 547.62,-716.39 84.39,-315.13 33.52,-634 -116.96,-894.74l0 -1.74c-150.11,-260.13 -400.67,-463.32 -716.06,-547.87zm-1333.88 -645.24c456.8,-263.85 1013.38,-353.6 1561.42,-206.69 547.92,146.89 985.31,503.14 1249.66,960.48l0.76 -0.44c263.93,457.35 353.65,1014.79 206.59,1563.88 -146.94,548.68 -503.57,986.6 -961.32,1251 -439.64,253.93 -971.7,346.57 -1499.63,222.2l-3.94 0 -57.88 -15.51c-548.43,-147.03 -986.13,-503.81 -1250.4,-961.77 -253.83,-439.85 -346.41,-972.15 -222.1,-1500.32l0 -3.92 15.51 -57.92c146.94,-548.68 503.57,-986.6 961.33,-1250.99zm8967.99 -3689.93l37.13 9.96 1.94 0.97c522.7,151.17 939.34,495.77 1192.68,934.76l0 1.73c259.79,450.18 348.15,998.7 203.51,1538.77 -144.74,540.46 -496.05,971.83 -946.97,1232.28 -449.97,259.9 -998.22,348.32 -1538.06,203.61 -541.01,-145.03 -972.1,-495.81 -1231.73,-945.68l0 -1.73c-259.79,-450.19 -348.15,-998.71 -203.51,-1538.77l9.95 -37.15 1 -1.99c150.81,-521.64 495.38,-938.19 934.75,-1192.39l-0.44 -0.76c450.3,-260.1 999.16,-348.52 1539.75,-203.61zm-228.24 851.75c-306.51,-81.97 -616.62,-32.38 -870.23,114.11l-1.73 0c-253.18,146.24 -450.96,390.36 -533.26,697.66l-0.19 0.69c-82.01,306.96 -32.72,617.28 113.31,871.12l0.74 -0.43c146.91,254.58 390.98,453.12 697.37,535.25 307.55,82.44 618.55,32.86 872.69,-113.93 253.19,-146.24 450.96,-390.36 533.26,-697.68 82.27,-307.16 33.02,-617.77 -113.13,-871.79l-0.74 0.43c-146.91,-254.58 -390.99,-453.12 -697.36,-535.24l-0.73 -0.19zm5556.24 7550.07c49.5,-238.11 282.57,-390.98 520.57,-341.46 237.99,49.52 390.79,282.7 341.3,520.8 -327.96,1571.25 -1092.2,2991.42 -2044.94,4288.28 -941.07,1280.97 -2055.22,2431.27 -3110.36,3486.9 -172.31,172.4 -451.69,172.4 -624,0 -172.31,-172.39 -172.31,-451.89 0,-624.28 1035.61,-1036.1 2126.41,-2161.39 3024.18,-3383.43 886.11,-1206.16 1594.71,-2516.51 1893.25,-3946.81zm6802.96 6123.19c238,-49.52 471.07,103.35 520.57,341.45 49.49,238.11 -103.31,471.29 -341.3,520.81 -1429.64,298.68 -2739.39,1007.61 -3945,1894.12 -1221.47,898.18 -2346.24,1989.49 -3381.86,3025.58 -172.31,172.39 -451.69,172.39 -624,0 -172.31,-172.39 -172.31,-451.9 0,-624.29 1055.15,-1055.63 2204.92,-2170.29 3485.3,-3111.8 1296.26,-953.17 2715.77,-1717.76 4286.29,-2045.87zm4148.76 -10718.82c172.31,-172.39 451.69,-172.39 624,0 172.31,172.39 172.31,451.9 0,624.29l-16254.55 16262.06c-172.31,172.39 -451.69,172.39 -624,0 -172.31,-172.39 -172.31,-451.9 0,-624.29l16254.55 -16262.06zm11403.22 19416.12c190.46,774.82 57.93,1557.06 -313.99,2201.55 -381.26,660.66 -1014.37,1175.79 -1808.94,1388.8 -794.17,212.89 -1600.13,83.19 -2261.14,-298.61 -660.35,-381.44 -1175.25,-1014.84 -1388.16,-1809.78 -212.58,-793.76 -82.95,-1599.49 298.48,-2260.46l0 -1.73c381.26,-660.66 1014.37,-1175.8 1808.94,-1388.8l57.88 -15.52 2.74 0c774.46,-190.55 1556.33,-57.95 2200.52,314.14 660.36,381.44 1175.25,1014.83 1388.16,1809.76l15.51 57.91 0 2.74zm-1075.89 1760.05c268.17,-464.7 358.98,-1032.46 208.84,-1593.04l-0.22 -0.81c-150.16,-559.81 -512.76,-1005.82 -977.69,-1274.36 -464.49,-268.3 -1031.98,-359.15 -1592.29,-208.94l-0.81 0.22c-559.57,150.23 -1005.38,513 -1273.8,978.14l-0.74 -0.43c-267.78,464.81 -358.3,1032.62 -208.09,1593.49 150.03,560.2 512.77,1006.5 977.91,1275.17 464.49,268.29 1031.99,359.14 1592.31,208.93 559.94,-150.1 1006.04,-513 1274.58,-978.37zm-11088.88 1436.2c146.84,548.31 57.13,1105.15 -206.6,1562.16 -264.27,457.96 -701.99,814.76 -1250.41,961.77 -548.06,146.91 -1104.64,57.16 -1561.44,-206.69 -457.75,-264.4 -814.38,-702.32 -961.32,-1251 -146.85,-548.3 -57.13,-1105.14 206.59,-1562.15 264.28,-457.96 701.99,-814.76 1250.42,-961.77 548.05,-146.91 1104.63,-57.16 1561.43,206.69 457.75,264.4 814.38,702.32 961.33,1250.99zm-968.49 1124.13c150.66,-261.08 201.56,-580.56 116.95,-896.48 -84.5,-315.53 -287.6,-566.21 -547.61,-716.39 -260.97,-150.74 -580.31,-201.65 -896.07,-117.01 -315.38,84.54 -565.95,287.73 -716.06,547.87 -150.67,261.09 -201.56,580.57 -116.96,896.48 84.5,315.53 287.61,566.21 547.62,716.39 260.96,150.74 580.29,201.66 896.07,117.01 315.38,-84.54 565.94,-287.74 716.06,-547.87zm4450.12 -8534.14c144.64,540.07 56.28,1088.58 -203.51,1538.77l0 1.73c-259.63,449.87 -690.72,800.65 -1231.73,945.68 -539.82,144.71 -1088.08,56.3 -1538.06,-203.61 -450.92,-260.45 -802.23,-691.82 -946.97,-1232.28 -144.64,-540.07 -56.28,-1088.59 203.51,-1538.77 260.34,-451.13 691.5,-802.59 1231.72,-947.42 539.82,-144.71 1088.08,-56.31 1538.06,203.61l1.73 0c449.66,259.74 800.28,691.03 945.25,1232.29zm-964.67 1099.44c146.15,-254.02 195.4,-564.62 113.13,-871.8 -82.1,-306.51 -280.54,-550.71 -535,-697.69l0.43 -0.74c-253.91,-146.21 -564.37,-195.49 -871.39,-113.18 -307.17,82.35 -551.19,280.22 -697.36,533.52 -146.73,254.27 -196.28,565.41 -113.87,873.1 82.29,307.3 280.07,551.44 533.26,697.68 254.15,146.79 565.14,196.36 872.69,113.92 306.38,-82.13 550.46,-280.67 697.37,-535.24l0.74 0.43zm12868.57 -22658.14c-1183.93,359.77 -1642.68,1142.57 -2362.1,2370.63 -414.2,707.05 -906.5,1547.39 -1649.29,2536.2 -147.42,196.24 -293.28,365.97 -437.53,510.29 -793.08,793.44 -1694.18,1080.93 -2663.5,972.63 -907.16,-101.36 -1854.58,-561.81 -2811.46,-1281.29 -506.76,-381 -1010.11,-826.71 -1506.28,-1323.11 -496.18,-496.4 -941.68,-1000 -1322.52,-1506.97 -719.14,-957.33 -1179.37,-1905.19 -1280.68,-2812.77 -108.25,-969.77 179.1,-1871.28 972.18,-2664.73 144.25,-144.32 313.91,-290.25 510.06,-437.74 988.35,-743.12 1828.3,-1235.64 2535.02,-1650.04 1228.04,-720.07 2010.64,-1179.12 2370.02,-2364.81 37.04,-126.02 78.91,-251.35 125.48,-375.85 504.84,-1349.75 1558.94,-2588.49 2724.15,-3582.86 19.76,-23.45 40.47,-46.21 62.39,-68.14 77.46,-77.5 164.63,-141.33 260.52,-192.15 27.07,-16.09 55.16,-29.51 83.94,-40.3 563.11,-242.28 1392.7,-79.03 2340.26,412.72 1001.25,519.62 2191.3,1412.03 3332.76,2554.02 1141.46,1141.99 2033.45,2332.58 2552.84,3334.3 462.61,892.24 634.37,1679.91 451.08,2239.18 -12.77,92.43 -50.19,182.63 -113.33,260.31 -17.48,21.55 -35.07,43.07 -52.72,64.56 -23.97,32.43 -49.77,63.59 -77.46,93.43 -1007.94,1205.6 -2278.53,2306.85 -3666.54,2826.48 -124.98,46.78 -250.78,88.84 -377.29,126.01zm-7758.26 -5529.4c-460.59,412.05 -1032.38,747.43 -1724.16,1153.06 -683.43,400.74 -1495.7,877.02 -2435.74,1583.82 -140.18,105.41 -271.49,219.77 -394.22,342.55 -544.11,544.38 -742.42,1152.53 -670.19,1799.69 79.19,709.32 465.61,1485.71 1073.85,2295.4 337.94,449.89 752.26,915.76 1227.37,1391.08 475.09,475.31 940.75,889.82 1390.43,1227.92 809.31,608.52 1585.34,995.13 2294.34,1074.35 646.85,72.26 1254.73,-126.13 1798.85,-670.5 122.73,-122.78 237.04,-254.16 342.39,-394.4 706.48,-940.47 1182.55,-1753.11 1583.1,-2436.86 405.45,-692.11 740.66,-1264.16 1152.52,-1724.96 -435.75,-88.74 -873.34,-251.62 -1309.05,-500.63 -253.61,-144.01 -342.52,-466.45 -198.58,-720.18 143.94,-253.72 466.24,-342.68 719.85,-198.67 977.06,558.41 1974.46,545.21 2916.59,192.5 835.05,-312.61 1634.62,-886.31 2349.71,-1573.33 -319.56,-87.68 -664.68,-227.65 -1027.07,-415.72 -1001.25,-519.61 -2191.3,-1412.03 -3332.76,-2554.02 -1141.46,-1141.99 -2033.45,-2332.58 -2552.84,-3334.29 -184.84,-356.5 -323.14,-696.25 -411.02,-1011.47 -684.19,713.93 -1255.34,1511.74 -1566.95,2344.87 -352.55,942.57 -365.74,1940.42 192.4,2917.94 143.94,253.72 55.03,576.17 -198.58,720.18 -253.61,144 -575.9,55.05 -719.84,-198.67 -248.9,-435.91 -411.7,-873.7 -500.4,-1309.66zm3849.67 -5446.8c-36.2,29.61 -72.29,59.47 -108.28,89.56 -112.62,205.62 45.6,722.22 402.1,1409.8 469.78,906.04 1294.42,2000.77 2362.55,3069.39 1068.13,1068.62 2162.37,1893.66 3067.97,2363.64 741.37,384.75 1283.93,538.7 1451.9,370.65 167.96,-168.03 14.08,-710.86 -370.49,-1452.57 -469.78,-906.03 -1294.42,-2000.76 -2362.55,-3069.39 -1068.13,-1068.62 -2162.36,-1893.66 -3067.97,-2363.64 -652.16,-338.44 -1150.41,-498.25 -1375.23,-417.44zm-36575.8 32758.83c-0.12,7.21 -0.45,14.45 -1.02,21.73 -34.85,439.2 381.7,1240.45 1074.71,2222.18 815.26,1154.91 1998.93,2517.72 3291.86,3831.64 136.32,138.67 134.47,361.66 -4.14,498.05 -138.6,136.39 -361.49,134.54 -497.81,-4.13 -1319.66,-1341.09 -2529.92,-2735.06 -3366.34,-3919.95 -478.61,-678.03 -839.05,-1299.09 -1036,-1820.13 -274.77,343.59 -677.83,736.43 -1363.81,1217.58 -256.13,179.65 -485.32,379.37 -689.16,682.1 -214.51,318.56 -407.26,758.19 -582.73,1413.41 -66.1,246.78 -107.11,430.04 -145.41,601.28 -16.33,73 -32.28,144.26 -48.35,214.09 -2.08,28.5 -0.73,62.34 3.86,101.18 127.81,1080.94 1984.28,3394.78 4106.96,5493.9 2125.02,2101.45 4471.63,3942.19 5575.62,4072.85 48.94,5.79 90.77,6.82 124.88,2.79 15.17,-1.79 30.24,-2.89 45.23,-3.38l56.1 -12.57c171.17,-38.33 354.33,-79.35 601.01,-145.48 654.91,-175.55 1094.33,-368.39 1412.75,-583 302.6,-203.93 502.23,-433.23 681.8,-689.48 506.31,-722.53 914.79,-1131.33 1270.99,-1406.94 -179.92,-68.2 -370.74,-155.05 -570.88,-258.84 -591.27,-306.61 -1281.41,-766.53 -2020.39,-1329.89 -154.6,-118.1 -184.23,-339.25 -66.19,-493.92 118.05,-154.67 339.09,-184.31 493.69,-66.21 707.87,539.64 1362.74,976.96 1915.57,1263.66 455.74,236.34 825.8,365.69 1075.74,357.19 157.9,-96.05 310.26,-201.29 463.41,-354.52 354.66,-354.81 515.61,-656.34 493.24,-936.28 -24.69,-308.85 -255.45,-660.76 -680.53,-1086.03l-4603.71 -4605.84 -4603.71 -4605.83c-425.07,-425.28 -776.82,-656.15 -1085.53,-680.85 -279.8,-22.38 -581.19,138.65 -935.84,493.47 -170.07,170.15 -280.99,339.31 -385.87,516.17zm4940.19 15221.77c-1395.27,-734.46 -3254.7,-2250.85 -4938.09,-3915.57 -1692.8,-1674.01 -3232.52,-3523.03 -3969.51,-4903.77 -98.74,134.04 -215.09,270.63 -353.99,412.33 -9.17,10.76 -18.82,21.26 -28.97,31.42 -438.93,439.13 -966.83,989.52 -1629.76,1680.69 -4591.22,4786.87 -15386.29,16041.02 -28563.56,24895.48 364.22,480.38 745.83,966.69 1143.94,1457.3 471.23,580.73 977.71,1180.78 1518.21,1797.78 1764.49,-29.31 3445.04,565.38 4693.49,1814.41 1248.92,1249.5 1843.31,2931.62 1813.53,4697.66 597.19,523.36 1194.57,1027.46 1789.1,1510.51 492.84,400.43 981.4,784.25 1464.04,1150.52 891.91,-1328.28 1818.49,-2646.12 2768.85,-3947.23 1003.67,-1374.07 2038.81,-2732.38 3091.23,-4066.58 1005.31,-1274.48 2019.25,-2516.11 3030.55,-3719.59 1016.89,-1210.14 2019.88,-2368.92 3000.28,-3474.03 368.39,-415.25 657.1,-738.86 872.62,-978.3 279.51,-310.52 567.51,-628.12 862.91,-951.78 324.85,-355.91 661.36,-721.53 1007.77,-1095.18 325.58,-351.22 655,-703.78 987.04,-1056.7 3831.06,-4072.04 7167.69,-7275.29 9263.24,-9287.05 690.85,-663.22 1240.96,-1191.34 1679.89,-1630.47 10.16,-10.16 20.66,-19.81 31.4,-28.99 160.59,-157.56 314.6,-286.13 465.79,-392.86zm-36462.8 32272.2c163.74,-105.14 381.7,-57.59 486.79,106.23 105.09,163.83 57.56,381.88 -106.18,487.02 -812.1,522.76 -1690.8,837.9 -2543.55,934.14 -864.89,97.61 -1705.11,-30.13 -2427.03,-394.59 -173.64,-87.62 -243.4,-299.5 -155.82,-473.22 87.58,-173.72 299.36,-243.51 473,-155.89 596.37,301.08 1300.34,405.49 2032.62,322.84 746.41,-84.24 1520.14,-363.04 2240.17,-826.53zm13931.11 -11133.51c-121.86,151.62 -343.51,175.71 -495.07,53.8 -151.55,-121.91 -175.63,-343.67 -53.78,-495.3 993.83,-1237.61 1994.29,-2439.25 2990.63,-3600.64 1001.16,-1167.01 1992.73,-2287.5 2965.19,-3358.57 130.99,-144.01 353.88,-154.51 497.82,-23.46 143.94,131.06 154.44,354.05 23.45,498.05 -977.1,1076.16 -1964.83,2192.03 -2951.4,3342.03 -991.41,1155.63 -1987.22,2351.71 -2976.84,3584.09zm7636.9 -8781.73c-132.51,141.72 -354.78,149.13 -496.44,16.55 -141.66,-132.57 -149.07,-354.95 -16.55,-496.67 385.22,-411.85 714.98,-761.87 994.51,-1055.89 325.67,-342.56 651.38,-682.35 976.25,-1018.83 134.79,-140.19 357.69,-144.51 497.82,-9.66 140.12,134.86 144.45,357.86 9.65,498.05 -318.31,329.69 -642.86,668.33 -973.48,1016.08 -376.75,396.28 -709.43,748.5 -991.76,1050.37zm-17302.92 26876.12c1474.16,-2724.79 2983.29,-5323.64 4551.28,-7722.44 -508.9,-385.23 -1024.63,-789.88 -1545.25,-1212.88 -413.13,-335.67 -830.99,-684.44 -1252.67,-1045.79 -309.61,1680.4 -1167.4,3361.11 -2547.61,4741.95 -991.85,992.32 -2138.5,1714.82 -3328.57,2157.73 659.59,543.78 1316.44,1061.22 1965.34,1549.32 733.87,552.02 1455.56,1064.15 2157.48,1532.11zm-12807.3 -11765.68c442.61,-1191.73 1165.16,-2340.04 2157.87,-3333.21 1379.87,-1380.5 3059.31,-2238.6 4738.54,-2548.55 -356.15,-416.7 -706.54,-837.54 -1050.47,-1261.38 -420.4,-518.08 -822.66,-1031.32 -1205.77,-1537.89 -2424.48,1588.6 -5003.91,3098.39 -7707.79,4571.15 443.85,667.8 930.14,1356.06 1456.21,2059.86 506.47,677.58 1044.45,1362.47 1611.41,2050.02zm13607.91 940.1c143.15,-1653.26 -338.87,-3246.67 -1479.95,-4388.27 -1141.08,-1141.62 -2733.74,-1623.85 -4386.24,-1480.64 -1685.29,146.07 -3430.14,939.21 -4835.04,2344.75 -1404.9,1405.54 -2197.67,3151.2 -2343.67,4837.27 -143.15,1653.27 338.87,3246.67 1479.95,4388.28 1141.08,1141.6 2733.75,1623.84 4386.25,1480.63 1685.29,-146.06 3430.14,-939.2 4835.04,-2344.75 1404.89,-1405.54 2197.67,-3151.2 2343.66,-4837.27z"/></g></svg>